HIERARCHY
ROOT Hips
{
	OFFSET 0.000000 89.005402 0.000000
	CHANNELS 6 Xposition Yposition Zposition Xrotation Yrotation Zrotation
	JOINT Spine
	{
		OFFSET 0.116900 10.681000 0.373400
		CHANNELS 3 Xrotation Yrotation Zrotation
		JOINT Spine1
		{
			OFFSET 0.000000 13.840401 0.053500
			CHANNELS 3 Xrotation Yrotation Zrotation
			JOINT Spine2
			{
				OFFSET 0.000000 14.712700 -0.366200
				CHANNELS 3 Xrotation Yrotation Zrotation
				JOINT Neck
				{
					OFFSET 0.000000 35.415497 -3.314200
					CHANNELS 3 Xrotation Yrotation Zrotation
					JOINT Head
					{
						OFFSET 0.000000 16.899200 1.218300
						CHANNELS 3 Xrotation Yrotation Zrotation
						JOINT HeadTop_End
						{
							OFFSET 0.000000 22.206207 2.192500
							CHANNELS 3 Xrotation Yrotation Zrotation
							End Site
							{
								OFFSET 0.000000 22.314178 0.000000
							}
						}
					}
				}
				JOINT LeftShoulder
				{
					OFFSET 12.896400 26.716293 -4.548400
					CHANNELS 3 Xrotation Yrotation Zrotation
					JOINT LeftArm
					{
						OFFSET 19.027000 -4.857010 -1.718400
						CHANNELS 3 Xrotation Yrotation Zrotation
						JOINT LeftForeArm
						{
							OFFSET 24.179897 0.000000 0.000000
							CHANNELS 3 Xrotation Yrotation Zrotation
							JOINT LeftHand
							{
								OFFSET 27.156403 0.000000 0.000000
								CHANNELS 3 Xrotation Yrotation Zrotation
								JOINT LeftHandIndex1
								{
									OFFSET 16.441200 0.000000 0.000000
									CHANNELS 3 Xrotation Yrotation Zrotation
									JOINT LeftHandIndex2
									{
										OFFSET 4.821899 0.000000 0.000000
										CHANNELS 3 Xrotation Yrotation Zrotation
										JOINT LeftHandIndex3
										{
											OFFSET 6.386497 0.000000 0.000000
											CHANNELS 3 Xrotation Yrotation Zrotation
											JOINT LeftHandIndex4
											{
												OFFSET 5.188988 0.000000 0.000000
												CHANNELS 3 Xrotation Yrotation Zrotation
												End Site
												{
													OFFSET -0.178703 5.185913 0.000177
												}
											}
										}
									}
								}
								JOINT LeftHandThumb1
								{
									OFFSET 6.534897 -5.032593 5.900300
									CHANNELS 3 Xrotation Yrotation Zrotation
									JOINT LeftHandThumb2
									{
										OFFSET 3.818176 -2.204422 2.204423
										CHANNELS 3 Xrotation Yrotation Zrotation
										JOINT LeftHandThumb3
										{
											OFFSET 3.252098 -1.877594 1.877601
											CHANNELS 3 Xrotation Yrotation Zrotation
											JOINT LeftHandThumb4
											{
												OFFSET 5.251778 -3.032120 3.032117
												CHANNELS 3 Xrotation Yrotation Zrotation
												End Site
												{
													OFFSET 0.000023 6.780014 0.000000
												}
											}
										}
									}
								}
							}
						}
					}
				}
				JOINT RightShoulder
				{
					OFFSET -12.896300 26.716293 -4.548400
					CHANNELS 3 Xrotation Yrotation Zrotation
					JOINT RightArm
					{
						OFFSET -19.027000 -4.857010 -1.718400
						CHANNELS 3 Xrotation Yrotation Zrotation
						JOINT RightForeArm
						{
							OFFSET -24.179897 0.000000 0.000000
							CHANNELS 3 Xrotation Yrotation Zrotation
							JOINT RightHand
							{
								OFFSET -27.156403 0.000000 0.000000
								CHANNELS 3 Xrotation Yrotation Zrotation
								JOINT RightHandThumb1
								{
									OFFSET -6.591202 -4.852203 5.988100
									CHANNELS 3 Xrotation Yrotation Zrotation
									JOINT RightHandThumb2
									{
										OFFSET -3.818176 -2.204422 2.204423
										CHANNELS 3 Xrotation Yrotation Zrotation
										JOINT RightHandThumb3
										{
											OFFSET -3.252098 -1.877594 1.877601
											CHANNELS 3 Xrotation Yrotation Zrotation
											JOINT RightHandThumb4
											{
												OFFSET -5.251778 -3.032120 3.032117
												CHANNELS 3 Xrotation Yrotation Zrotation
												End Site
												{
													OFFSET -0.000023 6.780014 0.000000
												}
											}
										}
									}
								}
								JOINT RightHandIndex1
								{
									OFFSET -16.029404 0.000000 0.000000
									CHANNELS 3 Xrotation Yrotation Zrotation
									JOINT RightHandIndex2
									{
										OFFSET -5.213303 0.000000 0.000000
										CHANNELS 3 Xrotation Yrotation Zrotation
										JOINT RightHandIndex3
										{
											OFFSET -6.386528 0.000000 0.000000
											CHANNELS 3 Xrotation Yrotation Zrotation
											JOINT RightHandIndex4
											{
												OFFSET -5.189026 0.000000 0.000000
												CHANNELS 3 Xrotation Yrotation Zrotation
												End Site
												{
													OFFSET 0.236702 5.183624 0.001972
												}
											}
										}
									}
								}
							}
						}
					}
				}
			}
		}
	}
	JOINT LeftUpLeg
	{
		OFFSET 14.073000 -7.904099 -1.463000
		CHANNELS 3 Xrotation Yrotation Zrotation
		JOINT LeftLeg
		{
			OFFSET -0.109806 -34.073280 4.093200
			CHANNELS 3 Xrotation Yrotation Zrotation
			JOINT LeftFoot
			{
				OFFSET 0.109806 -29.899420 -6.319000
				CHANNELS 3 Xrotation Yrotation Zrotation
				JOINT LeftToeBase
				{
					OFFSET 1.551100 -14.988700 20.535801
					CHANNELS 3 Xrotation Yrotation Zrotation
					JOINT LeftToe_End
					{
						OFFSET 0.221200 0.570800 13.248301
						CHANNELS 3 Xrotation Yrotation Zrotation
						End Site
						{
							OFFSET 0.000000 13.262435 0.000000
						}
					}
				}
			}
		}
	}
	JOINT RightUpLeg
	{
		OFFSET -13.839300 -7.904099 -1.463000
		CHANNELS 3 Xrotation Yrotation Zrotation
		JOINT RightLeg
		{
			OFFSET 0.109694 -34.073219 4.093300
			CHANNELS 3 Xrotation Yrotation Zrotation
			JOINT RightFoot
			{
				OFFSET -0.109694 -29.899384 -6.319200
				CHANNELS 3 Xrotation Yrotation Zrotation
				JOINT RightToeBase
				{
					OFFSET -1.551100 -14.988700 20.535801
					CHANNELS 3 Xrotation Yrotation Zrotation
					JOINT RightToe_End
					{
						OFFSET -0.221200 0.570900 13.248299
						CHANNELS 3 Xrotation Yrotation Zrotation
						End Site
						{
							OFFSET 0.000000 13.262440 0.000000
						}
					}
				}
			}
		}
	}
}
MOTION
Frames: 8
Frame Time: 0.033333
0.241547 64.842735 -106.887779 26.168089 -33.133357 12.197155 17.087887 0.944504 -3.735535 3.242163 -5.304907 -0.890571 3.371673 -5.253870 -0.752749 -10.027830 20.111904 -0.317505 -16.483533 27.779264 -2.011613 -0.000004 0.000000 0.000001 10.933783 -19.570270 21.220370 -33.145511 1.310460 -6.316984 -27.475641 -51.123734 1.605842 -1.314159 0.703206 11.627563 13.091741 -1.502629 10.038056 -0.162772 0.312657 -35.352721 -0.120020 0.317354 -36.503383 -0.000001 -0.000000 -0.000002 -4.208753 -7.549962 8.224624 3.486902 20.075879 -1.643866 0.788985 1.241438 2.635079 -0.000001 -0.000000 -0.000000 7.446010 4.152138 5.870713 -96.876330 -37.332065 -20.901701 64.666667 141.185707 -36.885726 -6.881864 8.794047 -19.656458 -0.212022 9.787296 -7.255444 2.053567 -16.166909 3.135993 0.452005 -8.623796 -7.142055 -0.000000 -0.000002 -0.000000 17.576129 10.894891 -18.004918 -0.120856 -0.320532 15.641335 -0.116312 -0.255012 20.487979 -0.000000 0.000001 -0.000000 -81.290808 -14.701306 28.622956 65.286486 -3.439020 -6.538912 -27.850093 1.645858 -18.065135 -0.476493 0.942183 -0.157117 0.000003 -0.000000 -0.000001 -39.403232 19.836462 -2.993846 82.189954 -4.371949 2.588765 -54.688720 -3.461292 9.843995 -10.513962 -2.145349 5.274351 0.000000 0.000000 0.000000 
-0.268410 64.895081 -110.912514 26.067808 -32.006297 12.637072 17.070810 0.700654 -3.419055 3.322245 -5.712478 -1.041428 3.427067 -5.680498 -0.926951 -9.479561 19.924809 -0.990879 -17.199446 27.504222 -1.617450 -0.000002 -0.000000 -0.000000 11.472983 -19.642333 20.840060 -32.971160 0.436545 -6.408918 -28.069841 -52.110269 2.718709 -0.794051 0.707882 10.349536 13.092530 -1.492328 10.174230 -0.163289 0.312252 -34.890522 -0.121697 0.317058 -36.041201 0.000001 0.000001 -0.000001 -4.208728 -7.549956 8.224641 3.486908 20.075903 -1.643872 0.788972 1.241429 2.635065 -0.000003 0.000000 0.000000 8.333829 4.338534 5.564151 -98.742856 -37.242593 -21.581226 66.443090 141.115192 -38.344689 -5.803079 9.833737 -19.543552 -0.637419 9.749636 -7.729658 2.125692 -16.364268 3.064772 0.894266 -9.313218 -7.304899 0.000000 -0.000002 0.000001 17.861501 10.987798 -17.449354 -0.120536 -0.320878 15.995659 -0.114746 -0.254948 20.898402 -0.000001 -0.000001 -0.000000 -80.805017 -14.592192 29.748500 64.058903 0.390454 -8.719872 -25.727420 1.262353 -17.403329 -0.380952 0.942040 -0.255892 -0.000002 0.000001 0.000001 -42.862104 18.439100 -0.673981 82.677971 -6.269257 2.404426 -55.177209 -2.944833 9.063676 -6.197435 -1.432440 4.692247 -0.000000 0.000001 0.000000 
-0.630136 65.319717 -115.002014 25.721511 -31.270795 12.904996 18.662802 0.487082 -3.911025 2.870607 -5.787974 -0.729204 3.006266 -5.748381 -0.566328 -9.181426 19.473711 -0.951804 -17.727493 27.548432 -1.770291 -0.000002 0.000001 0.000000 11.968285 -19.872002 21.001227 -33.343440 -0.600622 -6.547847 -27.590993 -52.370431 2.894617 -0.804045 0.701065 10.526939 13.093465 -1.477603 10.368539 -0.163934 0.311813 -34.318275 -0.123775 0.314973 -35.468981 -0.000000 -0.000000 0.000003 -4.208732 -7.549967 8.224647 3.486889 20.075886 -1.643867 0.788995 1.241489 2.635076 0.000001 -0.000000 -0.000001 8.952248 4.132164 5.271414 -98.413505 -37.434918 -21.086812 66.783192 140.967482 -39.912432 -4.738931 10.696083 -19.502482 -1.068085 9.714733 -8.229225 2.199987 -16.569419 2.991127 1.346749 -10.026911 -7.476002 -0.000001 0.000003 -0.000004 18.147866 11.081051 -16.870992 -0.120197 -0.321206 16.363275 -0.113137 -0.254863 21.324967 -0.000001 0.000002 0.000000 -81.767487 -11.848539 28.963151 64.744285 0.476268 -8.533935 -21.026987 -2.226203 -12.998618 -0.336603 0.941884 -0.301611 0.000003 -0.000000 -0.000000 -48.280811 17.092168 2.004523 84.456860 -7.420911 2.168581 -52.115552 -2.136581 8.047874 -5.713090 -1.418689 4.263365 -0.000000 -0.000001 -0.000000 
-0.861801 65.932373 -119.265015 25.428337 -31.522098 13.078937 21.411110 0.270640 -4.970709 1.951984 -5.478303 -0.214157 2.150783 -5.418683 0.057219 -9.206386 18.964524 -0.593323 -17.955393 27.681056 -2.000869 -0.000002 0.000000 -0.000000 12.247698 -20.367984 21.507388 -33.923746 -0.805081 -6.499889 -27.093240 -52.521887 1.809940 -1.164504 0.718885 10.392143 13.094370 -1.459988 10.601316 -0.164685 0.311461 -33.673147 -0.126118 0.312712 -34.823829 -0.000001 0.000001 0.000001 -4.208734 -7.549948 8.224611 3.486884 20.075861 -1.643859 0.788997 1.241425 2.635055 -0.000002 -0.000000 -0.000000 9.183977 4.293284 5.031442 -99.109740 -37.292013 -21.697339 67.593096 141.059416 -40.900491 -3.657848 11.520583 -19.871472 -1.491704 9.685581 -8.740530 2.273925 -16.776734 2.917341 1.797403 -10.744646 -7.649586 0.000002 0.000002 0.000001 18.428211 11.171700 -16.286878 -0.119883 -0.321519 16.733706 -0.111478 -0.254823 21.755001 0.000002 -0.000000 0.000001 -81.517468 -12.609468 29.914340 69.046048 2.194531 -12.539648 -15.372102 -5.804597 -6.431974 -0.328713 0.941841 -0.309845 0.000001 -0.000002 0.000000 -53.275363 14.970193 4.320991 84.093774 -6.933306 1.827174 -47.980259 -0.946216 6.301224 -4.684698 -1.399693 3.471522 -0.000000 -0.000001 0.000000 
-0.960819 66.966034 -123.634483 25.053503 -31.979489 13.043032 25.178944 -0.145331 -6.006143 0.675025 -5.286119 0.351674 0.948082 -5.208741 0.768188 -8.838585 18.807001 -0.575458 -18.498446 28.061614 -2.106130 0.000002 0.000001 -0.000000 12.661785 -20.341972 22.111798 -33.946324 -1.317764 -6.458899 -24.393353 -51.711222 3.389810 -1.611905 -0.501333 11.697474 13.094997 -1.440901 10.853059 -0.165482 0.311226 -32.992194 -0.128641 0.310343 -34.142845 0.000001 0.000001 0.000004 -4.208743 -7.549976 8.224618 3.486884 20.075903 -1.643827 0.788989 1.241466 2.635040 -0.000000 0.000000 -0.000000 9.542503 4.703745 5.216303 -98.666611 -37.517328 -20.625423 66.350418 140.654427 -40.483112 -2.597763 12.152526 -20.437666 -1.896577 9.664226 -9.249366 2.346939 -16.979290 2.844889 2.234266 -11.446151 -7.820194 0.000002 0.000001 -0.000001 18.695807 11.258990 -15.714324 -0.119545 -0.321861 17.096616 -0.109902 -0.254705 22.175828 -0.000000 0.000001 0.000002 -82.398856 -11.288924 29.935633 74.586745 4.084676 -14.125291 -9.465318 -7.786035 0.352452 -0.328686 0.941823 -0.309859 -0.000000 0.000001 -0.000001 -57.141137 12.471989 6.265879 81.466043 -6.164678 1.398565 -42.589795 0.222478 4.592251 -3.491840 -1.390922 2.556063 -0.000000 0.000001 0.000000 
-1.007814 67.703362 -127.484314 25.507029 -32.006120 13.333837 27.711758 -0.412638 -6.602641 -0.433003 -5.324123 0.871619 -0.081539 -5.230683 1.410460 -8.925434 18.937273 -0.504763 -18.624353 28.524443 -2.295579 0.000001 0.000001 0.000001 12.818017 -20.069785 22.260958 -33.651154 -1.973936 -6.551691 -25.455604 -51.346719 2.525810 -1.751529 -0.951756 11.507041 13.095841 -1.421841 11.104096 -0.166197 0.310853 -32.312525 -0.131147 0.309625 -33.463200 0.000002 -0.000000 0.000002 -4.208740 -7.549967 8.224655 3.486873 20.075867 -1.643882 0.789017 1.241410 2.635081 0.000000 0.000001 -0.000000 9.552273 4.683331 5.697539 -97.605377 -37.710349 -19.157224 65.355935 140.418663 -39.990980 -1.566961 13.177772 -20.195548 -2.271818 9.652006 -9.741039 2.420823 -17.168963 2.774982 2.645227 -12.111513 -7.982619 0.000001 0.000001 -0.000000 18.944044 11.340490 -15.170431 -0.119204 -0.322187 17.441481 -0.108388 -0.254577 22.574856 -0.000000 0.000000 0.000003 -84.842711 -9.494308 29.320469 80.239478 4.776964 -14.216749 -2.270053 -10.217864 4.530793 -0.328674 0.941842 -0.309836 0.000000 0.000001 -0.000000 -60.582426 10.138655 7.591812 78.448869 -5.598365 0.969856 -37.705216 1.065692 3.464210 -2.377782 -1.390968 1.538121 0.000000 0.000002 -0.000000 
-0.980310 68.108887 -130.941895 26.334641 -31.996168 13.119026 29.192591 -0.236521 -6.199065 -1.223980 -5.308837 1.182285 -0.842743 -5.208117 1.805326 -9.261981 19.211697 -0.696818 -18.731379 28.761028 -2.122944 -0.000003 -0.000000 -0.000000 12.794134 -20.210473 22.303450 -33.785534 -2.233941 -6.587933 -25.961807 -51.210907 1.740026 -1.942894 -0.640337 11.408638 13.096644 -1.404369 11.334848 -0.166930 0.310462 -31.671293 -0.133484 0.310218 -32.821921 0.000000 0.000001 0.000003 -4.208736 -7.550027 8.224620 3.486881 20.075883 -1.643842 0.789015 1.241454 2.635038 -0.000000 -0.000000 -0.000001 9.296903 4.614427 6.031653 -96.083597 -38.307109 -17.993527 63.935734 140.383460 -39.320077 -0.650998 13.909840 -19.939103 -2.607373 9.649493 -10.200245 2.488458 -17.342895 2.711088 3.018598 -12.720644 -8.131760 -0.000000 0.000002 -0.000001 19.164616 11.413107 -14.671764 -0.118938 -0.322428 17.757973 -0.107002 -0.254512 22.939300 0.000000 -0.000000 -0.000001 -87.185746 -9.012603 28.975612 85.836196 3.282060 -13.119934 5.318457 -11.423552 2.893403 -3.471990 1.214671 -4.930762 0.000000 0.000000 -0.000000 -63.663387 7.696044 9.398904 75.418751 -5.890775 0.549363 -33.398529 1.890759 2.301869 -1.586702 -1.394822 0.636517 -0.000000 0.000001 -0.000000 
-0.926460 68.494972 -134.308533 27.078022 -32.382637 12.529087 30.339150 0.113634 -5.490941 -1.865017 -5.162186 1.378205 -1.486057 -5.055299 2.054533 -9.355221 19.405532 -0.786526 -18.954601 29.094605 -2.222820 -0.000001 -0.000001 0.000000 12.757397 -20.498269 22.159202 -33.803231 -2.261679 -6.630747 -26.534947 -51.276228 1.201818 -1.909484 -0.226980 11.366171 13.097315 -1.389819 11.525698 -0.167546 0.310140 -31.105590 -0.135594 0.310729 -32.256258 0.000000 -0.000000 -0.000004 -4.208720 -7.549936 8.224647 3.486889 20.075896 -1.643863 0.788986 1.241417 2.635087 0.000003 -0.000001 -0.000000 9.096958 4.509098 5.945096 -94.708325 -39.101713 -16.918268 62.454628 140.114186 -38.605506 0.197280 14.675442 -19.661803 -2.893610 9.656704 -10.611227 2.544321 -17.497239 2.656436 3.342448 -13.253692 -8.262793 -0.000000 0.000001 -0.000000 19.351376 11.475239 -14.235543 -0.118679 -0.322714 18.035589 -0.105783 -0.254430 23.256635 -0.000000 -0.000002 -0.000001 -87.869612 -8.438414 29.175556 91.328898 1.487958 -11.933095 11.535031 -13.336316 0.102808 -21.772372 0.560909 1.148108 0.000000 0.000002 -0.000000 -66.512608 5.461584 11.752939 72.337379 -6.452382 0.318975 -28.562675 2.566433 0.803029 -1.230742 -1.396500 0.291635 -0.000000 0.000001 -0.000000 
